<mxfile host="app.diagrams.net" modified="2021-09-20T14:29:44.347Z" agent="5.0 (Macintosh; Intel Mac OS X 10_15_7) AppleWebKit/537.36 (KHTML, like Gecko) Chrome/92.0.4515.159 Safari/537.36" etag="YztfeapOudzVkWBArYOF" version="15.0.6" type="github">
  <diagram id="C5RBs43oDa-KdzZeNtuy" name="Page-1">
    <mxGraphModel dx="1577" dy="2002" grid="1" gridSize="10" guides="1" tooltips="1" connect="1" arrows="1" fold="1" page="1" pageScale="1" pageWidth="827" pageHeight="1169" math="0" shadow="0">
      <root>
        <mxCell id="WIyWlLk6GJQsqaUBKTNV-0" />
        <mxCell id="WIyWlLk6GJQsqaUBKTNV-1" parent="WIyWlLk6GJQsqaUBKTNV-0" />
        <mxCell id="RCT6OE-6yIksdqb4JdZw-8" value="" style="edgeStyle=orthogonalEdgeStyle;rounded=0;orthogonalLoop=1;jettySize=auto;html=1;fontSize=14;" edge="1" parent="WIyWlLk6GJQsqaUBKTNV-1" source="WIyWlLk6GJQsqaUBKTNV-3" target="RCT6OE-6yIksdqb4JdZw-2">
          <mxGeometry relative="1" as="geometry" />
        </mxCell>
        <mxCell id="WIyWlLk6GJQsqaUBKTNV-3" value="&amp;nbsp;Open a TC" style="rounded=1;whiteSpace=wrap;html=1;fontSize=14;glass=0;strokeWidth=1;shadow=0;" parent="WIyWlLk6GJQsqaUBKTNV-1" vertex="1">
          <mxGeometry x="160" y="80" width="120" height="40" as="geometry" />
        </mxCell>
        <mxCell id="RCT6OE-6yIksdqb4JdZw-1" value="" style="edgeStyle=orthogonalEdgeStyle;rounded=0;orthogonalLoop=1;jettySize=auto;html=1;fontSize=14;" edge="1" parent="WIyWlLk6GJQsqaUBKTNV-1" source="RCT6OE-6yIksdqb4JdZw-0" target="WIyWlLk6GJQsqaUBKTNV-3">
          <mxGeometry relative="1" as="geometry" />
        </mxCell>
        <mxCell id="RCT6OE-6yIksdqb4JdZw-0" value="" style="ellipse;shape=doubleEllipse;html=1;dashed=0;whitespace=wrap;aspect=fixed;fontSize=14;" vertex="1" parent="WIyWlLk6GJQsqaUBKTNV-1">
          <mxGeometry x="200" y="-20" width="40" height="40" as="geometry" />
        </mxCell>
        <mxCell id="RCT6OE-6yIksdqb4JdZw-4" value="" style="edgeStyle=orthogonalEdgeStyle;rounded=0;orthogonalLoop=1;jettySize=auto;html=1;fontSize=14;" edge="1" parent="WIyWlLk6GJQsqaUBKTNV-1" source="RCT6OE-6yIksdqb4JdZw-2" target="RCT6OE-6yIksdqb4JdZw-3">
          <mxGeometry relative="1" as="geometry" />
        </mxCell>
        <mxCell id="RCT6OE-6yIksdqb4JdZw-2" value="Switch to&amp;nbsp;&lt;b style=&quot;font-size: 14px&quot;&gt;Variables &amp;amp; Data Binding&amp;nbsp;&lt;/b&gt;tab" style="rounded=1;whiteSpace=wrap;html=1;fontSize=14;glass=0;strokeWidth=1;shadow=0;" vertex="1" parent="WIyWlLk6GJQsqaUBKTNV-1">
          <mxGeometry x="140" y="160" width="160" height="60" as="geometry" />
        </mxCell>
        <mxCell id="RCT6OE-6yIksdqb4JdZw-6" value="" style="edgeStyle=orthogonalEdgeStyle;rounded=0;orthogonalLoop=1;jettySize=auto;html=1;fontSize=14;" edge="1" parent="WIyWlLk6GJQsqaUBKTNV-1" source="RCT6OE-6yIksdqb4JdZw-3" target="RCT6OE-6yIksdqb4JdZw-5">
          <mxGeometry relative="1" as="geometry" />
        </mxCell>
        <mxCell id="RCT6OE-6yIksdqb4JdZw-28" value="" style="edgeStyle=orthogonalEdgeStyle;rounded=0;orthogonalLoop=1;jettySize=auto;html=1;fontSize=14;" edge="1" parent="WIyWlLk6GJQsqaUBKTNV-1" source="RCT6OE-6yIksdqb4JdZw-3" target="RCT6OE-6yIksdqb4JdZw-14">
          <mxGeometry relative="1" as="geometry" />
        </mxCell>
        <mxCell id="RCT6OE-6yIksdqb4JdZw-3" value="In &lt;b style=&quot;font-size: 14px;&quot;&gt;Variables&lt;/b&gt; section &amp;gt; Define variables" style="rounded=1;whiteSpace=wrap;html=1;fontSize=14;glass=0;strokeWidth=1;shadow=0;" vertex="1" parent="WIyWlLk6GJQsqaUBKTNV-1">
          <mxGeometry x="140" y="263.75" width="160" height="60" as="geometry" />
        </mxCell>
        <mxCell id="RCT6OE-6yIksdqb4JdZw-5" value="&amp;nbsp;Defined variables are populated in &lt;b style=&quot;font-size: 14px;&quot;&gt;Data Binding&lt;/b&gt; section/ &lt;b style=&quot;font-size: 14px;&quot;&gt;Variable Binding&lt;/b&gt;" style="rounded=1;whiteSpace=wrap;html=1;fontSize=14;glass=0;strokeWidth=1;shadow=0;" vertex="1" parent="WIyWlLk6GJQsqaUBKTNV-1">
          <mxGeometry x="580" y="267.5" width="260" height="52.5" as="geometry" />
        </mxCell>
        <mxCell id="RCT6OE-6yIksdqb4JdZw-12" value="" style="edgeStyle=orthogonalEdgeStyle;rounded=0;orthogonalLoop=1;jettySize=auto;html=1;fontSize=14;exitX=1;exitY=0.5;exitDx=0;exitDy=0;entryX=0;entryY=0.5;entryDx=0;entryDy=0;" edge="1" parent="WIyWlLk6GJQsqaUBKTNV-1" target="RCT6OE-6yIksdqb4JdZw-11">
          <mxGeometry relative="1" as="geometry">
            <mxPoint x="370" y="430" as="sourcePoint" />
            <mxPoint x="720" y="390" as="targetPoint" />
            <Array as="points">
              <mxPoint x="440" y="430" />
              <mxPoint x="440" y="390" />
            </Array>
          </mxGeometry>
        </mxCell>
        <mxCell id="RCT6OE-6yIksdqb4JdZw-16" value="#Data file = 1" style="edgeLabel;html=1;align=center;verticalAlign=middle;resizable=0;points=[];fontSize=14;" vertex="1" connectable="0" parent="RCT6OE-6yIksdqb4JdZw-12">
          <mxGeometry x="-0.0706" y="1" relative="1" as="geometry">
            <mxPoint x="61" y="1" as="offset" />
          </mxGeometry>
        </mxCell>
        <mxCell id="RCT6OE-6yIksdqb4JdZw-11" value="&amp;nbsp;Perform accordingly&amp;nbsp;" style="rounded=1;whiteSpace=wrap;html=1;fontSize=14;glass=0;strokeWidth=1;shadow=0;" vertex="1" parent="WIyWlLk6GJQsqaUBKTNV-1">
          <mxGeometry x="580" y="370" width="140" height="40" as="geometry" />
        </mxCell>
        <mxCell id="RCT6OE-6yIksdqb4JdZw-30" value="" style="edgeStyle=orthogonalEdgeStyle;rounded=0;orthogonalLoop=1;jettySize=auto;html=1;fontSize=14;" edge="1" parent="WIyWlLk6GJQsqaUBKTNV-1" source="RCT6OE-6yIksdqb4JdZw-14" target="RCT6OE-6yIksdqb4JdZw-29">
          <mxGeometry relative="1" as="geometry" />
        </mxCell>
        <mxCell id="RCT6OE-6yIksdqb4JdZw-14" value="In &lt;b&gt;Data Binding/Test Data&amp;nbsp;&lt;/b&gt;section &amp;gt; Add Data files" style="rounded=1;whiteSpace=wrap;html=1;fontSize=14;glass=0;strokeWidth=1;shadow=0;" vertex="1" parent="WIyWlLk6GJQsqaUBKTNV-1">
          <mxGeometry x="105" y="400" width="230" height="60" as="geometry" />
        </mxCell>
        <mxCell id="RCT6OE-6yIksdqb4JdZw-21" value="" style="edgeStyle=orthogonalEdgeStyle;rounded=0;orthogonalLoop=1;jettySize=auto;html=1;fontSize=14;exitX=1;exitY=0.5;exitDx=0;exitDy=0;entryX=0;entryY=0.5;entryDx=0;entryDy=0;" edge="1" parent="WIyWlLk6GJQsqaUBKTNV-1" source="RCT6OE-6yIksdqb4JdZw-14" target="RCT6OE-6yIksdqb4JdZw-23">
          <mxGeometry relative="1" as="geometry">
            <mxPoint x="370" y="430" as="sourcePoint" />
            <mxPoint x="580" y="470" as="targetPoint" />
            <Array as="points">
              <mxPoint x="440" y="430" />
              <mxPoint x="440" y="470" />
            </Array>
          </mxGeometry>
        </mxCell>
        <mxCell id="RCT6OE-6yIksdqb4JdZw-22" value="#Data file &amp;gt; 1" style="edgeLabel;html=1;align=center;verticalAlign=middle;resizable=0;points=[];fontSize=14;" vertex="1" connectable="0" parent="RCT6OE-6yIksdqb4JdZw-21">
          <mxGeometry x="-0.0706" y="1" relative="1" as="geometry">
            <mxPoint x="63" y="9" as="offset" />
          </mxGeometry>
        </mxCell>
        <mxCell id="RCT6OE-6yIksdqb4JdZw-42" value="" style="edgeStyle=orthogonalEdgeStyle;rounded=0;orthogonalLoop=1;jettySize=auto;html=1;fontSize=14;entryX=0;entryY=0.5;entryDx=0;entryDy=0;entryPerimeter=0;" edge="1" parent="WIyWlLk6GJQsqaUBKTNV-1" source="RCT6OE-6yIksdqb4JdZw-23" target="RCT6OE-6yIksdqb4JdZw-41">
          <mxGeometry relative="1" as="geometry">
            <mxPoint x="884" y="470.00000000000045" as="targetPoint" />
          </mxGeometry>
        </mxCell>
        <mxCell id="RCT6OE-6yIksdqb4JdZw-23" value="&lt;p&gt;Display dialog &lt;i&gt;&quot;KSE&amp;nbsp;&lt;span&gt;license is required&lt;/span&gt;&lt;span&gt;&quot;&lt;/span&gt;&lt;/i&gt;&lt;/p&gt;" style="rounded=1;whiteSpace=wrap;html=1;fontSize=14;glass=0;strokeWidth=1;shadow=0;" vertex="1" parent="WIyWlLk6GJQsqaUBKTNV-1">
          <mxGeometry x="580" y="450" width="280" height="40" as="geometry" />
        </mxCell>
        <mxCell id="RCT6OE-6yIksdqb4JdZw-72" style="edgeStyle=orthogonalEdgeStyle;rounded=0;orthogonalLoop=1;jettySize=auto;html=1;entryX=0;entryY=0.5;entryDx=0;entryDy=0;fontSize=16;" edge="1" parent="WIyWlLk6GJQsqaUBKTNV-1" source="RCT6OE-6yIksdqb4JdZw-29" target="RCT6OE-6yIksdqb4JdZw-31">
          <mxGeometry relative="1" as="geometry" />
        </mxCell>
        <mxCell id="RCT6OE-6yIksdqb4JdZw-29" value="In &lt;b&gt;Data Binding/Variables Binding&amp;nbsp;&lt;/b&gt;section &amp;gt; Conduct variables binding" style="rounded=1;whiteSpace=wrap;html=1;fontSize=14;glass=0;strokeWidth=1;shadow=0;" vertex="1" parent="WIyWlLk6GJQsqaUBKTNV-1">
          <mxGeometry x="105" y="530" width="230" height="60" as="geometry" />
        </mxCell>
        <mxCell id="RCT6OE-6yIksdqb4JdZw-71" value="" style="edgeStyle=orthogonalEdgeStyle;rounded=0;orthogonalLoop=1;jettySize=auto;html=1;fontSize=16;" edge="1" parent="WIyWlLk6GJQsqaUBKTNV-1" source="RCT6OE-6yIksdqb4JdZw-31" target="RCT6OE-6yIksdqb4JdZw-46">
          <mxGeometry relative="1" as="geometry" />
        </mxCell>
        <mxCell id="RCT6OE-6yIksdqb4JdZw-31" value="&amp;nbsp;Perform accordingly&amp;nbsp;" style="rounded=1;whiteSpace=wrap;html=1;fontSize=14;glass=0;strokeWidth=1;shadow=0;" vertex="1" parent="WIyWlLk6GJQsqaUBKTNV-1">
          <mxGeometry x="580" y="540" width="140" height="40" as="geometry" />
        </mxCell>
        <mxCell id="RCT6OE-6yIksdqb4JdZw-41" value="&lt;font style=&quot;font-size: 12px&quot;&gt;Map 1:1 only&lt;/font&gt;" style="shape=note;strokeWidth=2;fontSize=14;size=20;whiteSpace=wrap;html=1;fillColor=#fff2cc;strokeColor=#d6b656;fontColor=#666600;" vertex="1" parent="WIyWlLk6GJQsqaUBKTNV-1">
          <mxGeometry x="890" y="442.5" width="90" height="55" as="geometry" />
        </mxCell>
        <mxCell id="RCT6OE-6yIksdqb4JdZw-46" value="" style="ellipse;html=1;shape=endState;fillColor=#000000;fontSize=16;" vertex="1" parent="WIyWlLk6GJQsqaUBKTNV-1">
          <mxGeometry x="630" y="660" width="40" height="40" as="geometry" />
        </mxCell>
        <mxCell id="RCT6OE-6yIksdqb4JdZw-63" value="" style="endArrow=none;dashed=1;html=1;dashPattern=1 3;strokeWidth=2;fontSize=16;" edge="1" parent="WIyWlLk6GJQsqaUBKTNV-1">
          <mxGeometry width="50" height="50" relative="1" as="geometry">
            <mxPoint x="385" y="630" as="sourcePoint" />
            <mxPoint x="385" y="40" as="targetPoint" />
          </mxGeometry>
        </mxCell>
        <mxCell id="RCT6OE-6yIksdqb4JdZw-64" value="" style="endArrow=none;dashed=1;html=1;dashPattern=1 3;strokeWidth=2;fontSize=16;" edge="1" parent="WIyWlLk6GJQsqaUBKTNV-1">
          <mxGeometry width="50" height="50" relative="1" as="geometry">
            <mxPoint x="80" y="40" as="sourcePoint" />
            <mxPoint x="390" y="40" as="targetPoint" />
          </mxGeometry>
        </mxCell>
        <mxCell id="RCT6OE-6yIksdqb4JdZw-65" value="" style="endArrow=none;dashed=1;html=1;dashPattern=1 3;strokeWidth=2;fontSize=16;" edge="1" parent="WIyWlLk6GJQsqaUBKTNV-1">
          <mxGeometry width="50" height="50" relative="1" as="geometry">
            <mxPoint x="79" y="629" as="sourcePoint" />
            <mxPoint x="380" y="629" as="targetPoint" />
          </mxGeometry>
        </mxCell>
        <mxCell id="RCT6OE-6yIksdqb4JdZw-66" value="" style="endArrow=none;dashed=1;html=1;dashPattern=1 3;strokeWidth=2;fontSize=16;" edge="1" parent="WIyWlLk6GJQsqaUBKTNV-1">
          <mxGeometry width="50" height="50" relative="1" as="geometry">
            <mxPoint x="80" y="630" as="sourcePoint" />
            <mxPoint x="80" y="40" as="targetPoint" />
          </mxGeometry>
        </mxCell>
        <mxCell id="RCT6OE-6yIksdqb4JdZw-67" value="" style="endArrow=none;dashed=1;html=1;dashPattern=1 3;strokeWidth=2;fontSize=16;" edge="1" parent="WIyWlLk6GJQsqaUBKTNV-1">
          <mxGeometry width="50" height="50" relative="1" as="geometry">
            <mxPoint x="414" y="40" as="sourcePoint" />
            <mxPoint x="1000" y="40" as="targetPoint" />
          </mxGeometry>
        </mxCell>
        <mxCell id="RCT6OE-6yIksdqb4JdZw-68" value="" style="endArrow=none;dashed=1;html=1;dashPattern=1 3;strokeWidth=2;fontSize=16;" edge="1" parent="WIyWlLk6GJQsqaUBKTNV-1">
          <mxGeometry width="50" height="50" relative="1" as="geometry">
            <mxPoint x="414" y="630" as="sourcePoint" />
            <mxPoint x="414" y="40" as="targetPoint" />
          </mxGeometry>
        </mxCell>
        <mxCell id="RCT6OE-6yIksdqb4JdZw-69" value="" style="endArrow=none;dashed=1;html=1;dashPattern=1 3;strokeWidth=2;fontSize=16;" edge="1" parent="WIyWlLk6GJQsqaUBKTNV-1">
          <mxGeometry width="50" height="50" relative="1" as="geometry">
            <mxPoint x="422" y="629" as="sourcePoint" />
            <mxPoint x="1002" y="629" as="targetPoint" />
          </mxGeometry>
        </mxCell>
        <mxCell id="RCT6OE-6yIksdqb4JdZw-70" value="" style="endArrow=none;dashed=1;html=1;dashPattern=1 3;strokeWidth=2;fontSize=16;" edge="1" parent="WIyWlLk6GJQsqaUBKTNV-1">
          <mxGeometry width="50" height="50" relative="1" as="geometry">
            <mxPoint x="999" y="630" as="sourcePoint" />
            <mxPoint x="999" y="40" as="targetPoint" />
          </mxGeometry>
        </mxCell>
      </root>
    </mxGraphModel>
  </diagram>
</mxfile>
